<svg xmlns="http://www.w3.org/2000/svg" width="640" height="640" viewBox="0 0 640 640" role="img" aria-labelledby="title desc">
  <title id="title">LEGO model image placeholder</title>
  <desc id="desc">Colorful interlocking bricks with a question mark</desc>
  <defs>
    <linearGradient id="sky" x1="0" y1="0" x2="0" y2="1">
      <stop offset="0" stop-color="#dff5ff"/>
      <stop offset="1" stop-color="#fff8d9"/>
    </linearGradient>
    <filter id="shadow" x="-20%" y="-20%" width="140%" height="150%">
      <feDropShadow dx="0" dy="14" stdDeviation="14" flood-color="#1e6c99" flood-opacity=".18"/>
    </filter>
  </defs>
  <rect width="640" height="640" fill="url(#sky)"/>
  <g filter="url(#shadow)">
    <g fill="#168fe5">
      <rect x="116" y="302" width="408" height="142" rx="24"/>
      <rect x="154" y="270" width="72" height="48" rx="18"/>
      <rect x="284" y="270" width="72" height="48" rx="18"/>
      <rect x="414" y="270" width="72" height="48" rx="18"/>
    </g>
    <g fill="#e83b35">
      <rect x="178" y="426" width="284" height="108" rx="22"/>
      <rect x="210" y="400" width="62" height="40" rx="16"/>
      <rect x="368" y="400" width="62" height="40" rx="16"/>
    </g>
    <g fill="#f4bd13">
      <rect x="220" y="204" width="200" height="112" rx="22"/>
      <rect x="250" y="178" width="58" height="40" rx="15"/>
      <rect x="332" y="178" width="58" height="40" rx="15"/>
    </g>
  </g>
  <circle cx="320" cy="358" r="92" fill="#fff" opacity=".96"/>
  <path d="M282 329c4-34 28-55 65-55 38 0 64 21 64 54 0 28-15 42-39 56-17 10-22 18-22 36h-56c0-36 12-55 39-71 16-10 23-16 23-27 0-12-9-20-23-20-16 0-26 10-28 27zm7 116h63v57h-63z" fill="#173a52"/>
  <text x="320" y="580" text-anchor="middle" fill="#55778c" font-family="Arial, sans-serif" font-size="24" font-weight="700" letter-spacing="2">NO VERIFIED PHOTO</text>
</svg>
